<?xml version="1.0" encoding="UTF-8" standalone="no"?>
<svg width="143px" height="52px" viewBox="0 0 143 52" version="1.1" xmlns="http://www.w3.org/2000/svg" xmlns:xlink="http://www.w3.org/1999/xlink" xmlns:sketch="http://www.bohemiancoding.com/sketch/ns">
    <!-- Generator: Sketch 3.2.2 (9983) - http://www.bohemiancoding.com/sketch -->
    <title>Untitled</title>
    <desc>Created with Sketch.</desc>
    <defs></defs>
    <g id="Page-1" stroke="none" stroke-width="1" fill="none" fill-rule="evenodd" sketch:type="MSPage">
        <path d="M31.1303397,23.6421158 L49.5685649,23.6421159 L49.5685649,20.9972449 L31.1346553,20.9972449 L31.1656524,2 L26.6008643,2 L16.7243227,25.3894162 L6.76478505,2 L2.19999695,2 L2.19999695,30.2588851 L5.18785825,30.2588851 L5.2708544,5.7119722 L15.8943613,30.2588851 L17.4712881,30.2588851 L28.1777911,5.7119722 L28.1480348,20.9972449 L28.1268859,20.9972449 L28.126886,36.0812747 C29.4475757,35.5853589 30.8362213,35.1927648 32.2928644,34.9034806 C33.7495074,34.6141964 35.2158395,34.4695564 36.6919045,34.4695564 C38.1679694,34.4695564 39.5274826,34.6348592 40.7704847,34.9654697 C42.0134868,35.2960803 43.0913865,35.7644381 44.0042161,36.3705574 C44.9170458,36.9766767 45.6356456,37.7136516 46.1600371,38.5815043 C46.6844286,39.4493569 46.9466204,40.4205107 46.9466204,41.4949949 C46.9466204,42.4868265 46.7038502,43.4097671 46.2183025,44.2638442 C45.7327548,45.1179214 45.0627091,45.8548963 44.2081451,46.4747911 C43.3535812,47.0946858 42.3339463,47.5768189 41.14921,47.9212049 C39.9644736,48.2655908 38.6729361,48.4377812 37.2745588,48.4377812 C35.4488995,48.4377812 33.7883513,48.0796252 32.2928644,47.3633024 C30.7973775,46.6469796 29.6806345,45.6827134 28.942602,44.4704748 L25.155349,45.6689319 C26.2818196,47.2944337 27.8743922,48.5893055 29.9331144,49.5535862 C31.9918366,50.5178669 34.5166467,51 37.5076205,51 C39.5274989,51 41.3822633,50.7520458 43.0719692,50.25613 C44.7616752,49.7602143 46.2085856,49.0783403 47.4127439,48.2104876 C48.6169022,47.342635 49.5491397,46.3094926 50.2094846,45.1110295 C50.8698295,43.9125663 51.1999969,42.6108069 51.1999969,41.2057122 C51.1999969,39.8557192 50.8698295,38.6159483 50.2094846,37.4863624 C49.5491397,36.3567764 48.6169022,35.3856226 47.4127439,34.5728717 C46.2085856,33.7601208 44.7908076,33.1333478 43.1593674,32.6925337 C41.5279271,32.2517197 39.7411384,32.031316 37.7989477,32.031316 C36.8666961,32.031316 35.9053261,32.0864169 34.9148088,32.1966204 C33.9242915,32.306824 32.32492,32.4721264 31.1179515,32.6925334 L31.1179515,30.2588851 L31.1195434,30.2588851 L31.1303397,23.6421158 Z M1.19999695,1 L51.1999969,1 L51.1999969,51 L1.19999695,51 L1.19999695,1 Z" id="Rectangle-1" stroke="#4A4A4A" fill-opacity="0.495074728" fill="#9B9B9B" sketch:type="MSShapeGroup"></path>
        <path d="M70.5279969,47 L67.6839969,47 L78.6999969,21.512 L81.2199969,21.512 L92.1639969,47 L89.2839969,47 L86.4759969,40.304 L73.2999969,40.304 L70.5279969,47 Z M74.2719969,37.928 L85.5039969,37.928 L79.8879969,24.392 L74.2719969,37.928 Z" id="Path" fill="#4A4A4A" sketch:type="MSShapeGroup"></path>
        <path d="M92.4999969,47 L89.9079969,47 L89.9079969,21.512 L97.3959969,21.512 C98.6440032,21.512 99.8019916,21.6319988 100.869997,21.872 C101.938002,22.1120012 102.861993,22.5019973 103.641997,23.042 C104.422001,23.5820027 105.027995,24.2839957 105.459997,25.148 C105.891999,26.0120043 106.107997,27.0679938 106.107997,28.316 C106.107997,29.2520047 105.939999,30.1039962 105.603997,30.872 C105.267995,31.6400038 104.812,32.3059972 104.235997,32.87 C103.659994,33.4340028 102.976001,33.8839983 102.183997,34.22 C101.391993,34.5560017 100.528002,34.7719995 99.5919969,34.868 L107.043997,47 L103.875997,47 L96.8199969,35.084 L92.4999969,35.084 L92.4999969,47 Z M92.4999969,32.852 L96.9999969,32.852 C99.0880074,32.852 100.695991,32.4740038 101.823997,31.718 C102.952003,30.9619962 103.515997,29.8280076 103.515997,28.316 C103.515997,27.4759958 103.359999,26.7680029 103.047997,26.192 C102.735995,25.6159971 102.304,25.1480018 101.751997,24.788 C101.199994,24.4279982 100.528001,24.1640008 99.7359969,23.996 C98.943993,23.8279992 98.0680017,23.744 97.1079969,23.744 L92.4999969,23.744 L92.4999969,32.852 Z" id="Path" fill="#4A4A4A" sketch:type="MSShapeGroup"></path>
        <path d="M109.635997,47 L107.043997,47 L107.043997,21.512 L114.531997,21.512 C115.780003,21.512 116.937992,21.6319988 118.005997,21.872 C119.074002,22.1120012 119.997993,22.5019973 120.777997,23.042 C121.558001,23.5820027 122.163995,24.2839957 122.595997,25.148 C123.027999,26.0120043 123.243997,27.0679938 123.243997,28.316 C123.243997,29.2520047 123.075999,30.1039962 122.739997,30.872 C122.403995,31.6400038 121.948,32.3059972 121.371997,32.87 C120.795994,33.4340028 120.112001,33.8839983 119.319997,34.22 C118.527993,34.5560017 117.664002,34.7719995 116.727997,34.868 L124.179997,47 L121.011997,47 L113.955997,35.084 L109.635997,35.084 L109.635997,47 Z M109.635997,32.852 L114.135997,32.852 C116.224007,32.852 117.831991,32.4740038 118.959997,31.718 C120.088003,30.9619962 120.651997,29.8280076 120.651997,28.316 C120.651997,27.4759958 120.495999,26.7680029 120.183997,26.192 C119.871995,25.6159971 119.44,25.1480018 118.887997,24.788 C118.335994,24.4279982 117.664001,24.1640008 116.871997,23.996 C116.079993,23.8279992 115.204002,23.744 114.243997,23.744 L109.635997,23.744 L109.635997,32.852 Z" id="Path" fill="#4A4A4A" sketch:type="MSShapeGroup"></path>
        <path d="M126.771997,47 L124.179997,47 L124.179997,21.512 L126.771997,21.512 L126.771997,47 Z" id="Path" fill="#4A4A4A" sketch:type="MSShapeGroup"></path>
        <path d="M140.131997,26.0340645 C139.579994,25.3032222 138.872001,24.7151313 138.007997,24.2697742 C137.143993,23.8244171 136.100003,23.6017419 134.875997,23.6017419 C134.251994,23.6017419 133.616,23.6930959 132.967997,23.8758065 C132.319994,24.058517 131.732,24.3382884 131.203997,24.715129 C130.675994,25.0919696 130.249999,25.5658681 129.925997,26.1368387 C129.601995,26.7078093 129.439997,27.3815445 129.439997,28.1580645 C129.439997,28.9345845 129.595995,29.574062 129.907997,30.0765161 C130.219999,30.5789703 130.633994,31.0071918 131.149997,31.3611935 C131.666,31.7151953 132.253994,32.006386 132.913997,32.2347742 C133.574,32.4631624 134.263993,32.6915472 134.983997,32.9199355 C135.872001,33.1940014 136.765992,33.4909016 137.665997,33.8106452 C138.566001,34.1303887 139.375993,34.547191 140.095997,35.0610645 C140.816001,35.5749381 141.403995,36.2258348 141.859997,37.0137742 C142.315999,37.8017136 142.543997,38.8008972 142.543997,40.0113548 C142.543997,41.2218125 142.297999,42.266673 141.805997,43.1459677 C141.313994,44.0252625 140.678001,44.7503842 139.897997,45.3213548 C139.117993,45.8923254 138.230002,46.3148373 137.233997,46.5889032 C136.237992,46.8629691 135.236002,47 134.227997,47 C133.459993,47 132.692001,46.9257749 131.923997,46.7773226 C131.155993,46.6288702 130.424,46.406195 129.727997,46.1092903 C129.031993,45.8123856 128.384,45.4355507 127.783997,44.9787742 C127.183994,44.5219977 126.655999,43.9967126 126.199997,43.4029032 L128.431997,41.8270323 C128.984,42.6949076 129.757992,43.4200293 130.753997,44.0024194 C131.750002,44.5848094 132.91999,44.876 134.263997,44.876 C134.912,44.876 135.571994,44.7789365 136.243997,44.5848065 C136.916,44.3906764 137.521994,44.0937762 138.061997,43.6940968 C138.602,43.2944174 139.045995,42.80339 139.393997,42.221 C139.741999,41.63861 139.915997,40.9591652 139.915997,40.1826452 C139.915997,39.3376087 139.741999,38.6353254 139.393997,38.0757742 C139.045995,37.516223 138.584,37.0480341 138.007997,36.6711935 C137.431994,36.294353 136.772001,35.9803238 136.027997,35.7290968 C135.283993,35.4778697 134.504001,35.2266464 133.687997,34.9754194 C132.847993,34.7241923 132.020001,34.4387113 131.203997,34.1189677 C130.387993,33.7992242 129.656,33.3824219 129.007997,32.8685484 C128.359994,32.3546748 127.837999,31.720907 127.441997,30.9672258 C127.045995,30.2135446 126.847997,29.2885861 126.847997,28.1923226 C126.847997,27.0275426 127.093994,26.0226494 127.585997,25.1776129 C128.077999,24.3325764 128.719993,23.6360027 129.511997,23.087871 C130.304001,22.5397392 131.179992,22.1400658 132.139997,21.8888387 C133.100002,21.6376116 134.047992,21.512 134.983997,21.512 C136.712006,21.512 138.187991,21.8031906 139.411997,22.3855806 C140.636003,22.9679707 141.559994,23.6588347 142.183997,24.4581935 L140.131997,26.0340645 Z" id="Path" fill="#4A4A4A" sketch:type="MSShapeGroup"></path>
        <path d="M51.1999969,21.512 L53.7919969,21.512 L53.7919969,32.564 L67.6879969,32.564 L67.6879969,21.512 L70.2799969,21.512 L70.2799969,47 L67.6879969,47 L67.6879969,34.94 L53.7919969,34.94 L53.7919969,47 L51.1999969,47 L51.1999969,21.512 Z" id="Path" fill="#4A4A4A" sketch:type="MSShapeGroup"></path>
    </g>
</svg>