<?xml version="1.0" encoding="UTF-8" standalone="no"?>
<svg width="119px" height="119px" viewBox="0 0 119 119" version="1.1" xmlns="http://www.w3.org/2000/svg" xmlns:xlink="http://www.w3.org/1999/xlink" xmlns:sketch="http://www.bohemiancoding.com/sketch/ns">
    <!-- Generator: Sketch 3.2.2 (9983) - http://www.bohemiancoding.com/sketch -->
    <title>favicon2</title>
    <desc>Created with Sketch.</desc>
    <defs></defs>
    <g id="Page-1" stroke="none" stroke-width="1" fill="none" fill-rule="evenodd" sketch:type="MSPage">
        <path d="M111.28125,82 L105.92089,82 L105.92089,60.5 L81.6416104,60.5 L81.6416104,82 L76.28125,82 L76.28125,36.3125 L81.6416104,36.3125 L81.6416104,55.75 L105.92089,55.75 L105.92089,36.3125 L111.28125,36.3125 L111.28125,82 Z" id="Path" fill="#000000" sketch:type="MSShapeGroup"></path>
        <path d="M80,79.4373545 C80,87.0563768 78.2246554,92.997546 74.673913,97.2610404 C71.1231707,101.524535 66.3043783,103.65625 60.2173913,103.65625 C53.6231554,103.65625 48.5507424,102.333797 45,99.6888515 L45,89.9776073 C47.2826201,91.4777257 49.7681025,92.6620119 52.4565217,93.5305015 C55.144941,94.3989911 57.8079578,94.8332294 60.4456522,94.8332294 C64.7572679,94.8332294 68.0036123,93.5601217 70.1847826,91.0138681 C72.3659529,88.4676145 73.4565217,84.9246249 73.4565217,80.3847929 C73.4565217,77.3845561 73.0697502,74.9271622 72.2961957,73.0125374 C71.5226411,71.0979126 70.2291757,69.3313523 68.4157609,67.7128036 C66.602346,66.0942548 63.8442214,64.2586111 60.1413043,62.2058175 C54.9673654,59.3240112 51.2708444,55.9093192 49.0516304,51.9616392 C46.8324164,48.0139592 45.7228261,42.8623142 45.7228261,36.5065494 C45.7228261,29.8349702 47.3333172,24.5254203 50.5543478,20.5777404 C53.7753784,16.6300604 58.0362054,14.65625 63.3369565,14.65625 C68.8659697,14.65625 73.9510638,16.2352983 78.5923913,19.3934423 L76.576087,28.157248 C71.9854843,25.1570112 67.5217608,23.6569153 63.1847826,23.6569153 C59.7608524,23.6569153 57.0851546,24.8017254 55.1576087,27.0913797 C53.2300628,29.3810341 52.2663043,32.5588688 52.2663043,36.6249792 C52.2663043,39.625216 52.6213733,42.0826099 53.3315217,43.9972347 C54.0416702,45.9118595 55.2400278,47.6685507 56.9266304,49.2673611 C58.6132331,50.8661715 61.1938232,52.6327318 64.6684783,54.567095 C70.5018408,57.8041926 74.5153876,61.2780988 76.7092391,64.988918 C78.9030907,68.6997372 80,73.5158345 80,79.4373545 L80,79.4373545 Z" id="Path" fill="#000000" sketch:type="MSShapeGroup"></path>
        <path d="M25.4041782,82 L11.7025207,41.5 L11.4815262,41.5 C11.7393544,44.7083494 11.8682666,48.5208113 11.8682666,52.9375 L11.8682666,82 L7.53125,82 L7.53125,36.3125 L14.6030732,36.3125 L27.3931285,74 L27.6141229,74 L40.5146754,36.3125 L47.53125,36.3125 L47.53125,82 L42.8351174,82 L42.8351174,52.5625 C42.8351174,49.1874831 42.9640296,45.5208531 43.2218577,41.5625 L43.0008633,41.5625 L29.1887086,82 L25.4041782,82 Z" id="Path" fill="#000000" sketch:type="MSShapeGroup"></path>
        <circle id="Oval-1" stroke="#000000" stroke-width="4" sketch:type="MSShapeGroup" cx="59.5" cy="59.5" r="57.5"></circle>
    </g>
</svg>