<?xml version="1.0" encoding="UTF-8" standalone="no"?>
<svg width="647px" height="48px" viewBox="0 0 647 48" version="1.1" xmlns="http://www.w3.org/2000/svg" xmlns:xlink="http://www.w3.org/1999/xlink" xmlns:sketch="http://www.bohemiancoding.com/sketch/ns">
    <!-- Generator: Sketch 3.2.2 (9983) - http://www.bohemiancoding.com/sketch -->
    <title>Untitled</title>
    <desc>Created with Sketch.</desc>
    <defs></defs>
    <g id="Page-1" stroke="none" stroke-width="1" fill="none" fill-rule="evenodd" sketch:type="MSPage">
        <path d="M20.5,47 L5,6.5 L4.75,6.5 C5.04166813,9.70834938 5.1875,13.5208113 5.1875,17.9375 L5.1875,47 L0.28125,47 L0.28125,1.3125 L8.28125,1.3125 L22.75,39 L23,39 L37.59375,1.3125 L45.53125,1.3125 L45.53125,47 L40.21875,47 L40.21875,17.5625 C40.21875,14.1874831 40.3645819,10.5208531 40.65625,6.5625 L40.40625,6.5625 L24.78125,47 L20.5,47 Z M53.0625,47 L53.0625,1.3125 L58.375,1.3125 L58.375,47 L53.0625,47 Z M87.46875,5.40625 C82.4478916,5.40625 78.4843895,7.07810828 75.578125,10.421875 C72.6718605,13.7656417 71.21875,18.3437209 71.21875,24.15625 C71.21875,30.1354466 72.6197777,34.755192 75.421875,38.015625 C78.2239723,41.276058 82.2187241,42.90625 87.40625,42.90625 C90.5937659,42.90625 94.2291462,42.3333391 98.3125,41.1875 L98.3125,45.84375 C95.1458175,47.0312559 91.2396066,47.625 86.59375,47.625 C79.8645497,47.625 74.6718933,45.5833538 71.015625,41.5 C67.3593567,37.4166462 65.53125,31.6146209 65.53125,24.09375 C65.53125,19.3853931 66.4114495,15.2604344 68.171875,11.71875 C69.9323005,8.17706563 72.4739417,5.44792625 75.796875,3.53125 C79.1198083,1.61457375 83.0312275,0.65625 87.53125,0.65625 C92.3229406,0.65625 96.5103987,1.53124125 100.09375,3.28125 L97.84375,7.84375 C94.3853994,6.21874187 90.9271006,5.40625 87.46875,5.40625 L87.46875,5.40625 Z M139.96875,47 L134.65625,47 L134.65625,25.5 L110.59375,25.5 L110.59375,47 L105.28125,47 L105.28125,1.3125 L110.59375,1.3125 L110.59375,20.75 L134.65625,20.75 L134.65625,1.3125 L139.96875,1.3125 L139.96875,47 Z M180.21875,47 L174.53125,32.46875 L156.21875,32.46875 L150.59375,47 L145.21875,47 L163.28125,1.125 L167.75,1.125 L185.71875,47 L180.21875,47 Z M172.875,27.6875 L167.5625,13.53125 C166.874997,11.7395744 166.16667,9.54167969 165.4375,6.9375 C164.979164,8.93751 164.322921,11.1354047 163.46875,13.53125 L158.09375,27.6875 L172.875,27.6875 Z M216.46875,47 L191,47 L191,1.3125 L216.46875,1.3125 L216.46875,6.03125 L196.3125,6.03125 L196.3125,20.75 L215.25,20.75 L215.25,25.4375 L196.3125,25.4375 L196.3125,42.25 L216.46875,42.25 L216.46875,47 Z M222.59375,47 L222.59375,1.3125 L227.90625,1.3125 L227.90625,42.1875 L248.0625,42.1875 L248.0625,47 L222.59375,47 Z M299.21875,34.84375 C299.21875,38.8646034 297.760431,41.9999887 294.84375,44.25 C291.927069,46.5000113 287.968775,47.625 282.96875,47.625 C277.552056,47.625 273.385431,46.9270903 270.46875,45.53125 L270.46875,40.40625 C272.343759,41.1979206 274.385406,41.8229144 276.59375,42.28125 C278.802094,42.7395856 280.989573,42.96875 283.15625,42.96875 C286.697934,42.96875 289.364574,42.2968817 291.15625,40.953125 C292.947926,39.6093683 293.84375,37.7395953 293.84375,35.34375 C293.84375,33.7604088 293.526045,32.4635467 292.890625,31.453125 C292.255205,30.4427033 291.192716,29.5104209 289.703125,28.65625 C288.213534,27.8020791 285.947932,26.8333387 282.90625,25.75 C278.656229,24.2291591 275.619801,22.4270937 273.796875,20.34375 C271.973949,18.2604063 271.0625,15.5416834 271.0625,12.1875 C271.0625,8.66664906 272.385403,5.86459375 275.03125,3.78125 C277.677097,1.69790625 281.177062,0.65625 285.53125,0.65625 C290.072939,0.65625 294.249981,1.489575 298.0625,3.15625 L296.40625,7.78125 C292.635398,6.19790875 288.968768,5.40625 285.40625,5.40625 C282.593736,5.40625 280.395841,6.01041063 278.8125,7.21875 C277.229159,8.42708937 276.4375,10.1041559 276.4375,12.25 C276.4375,13.8333412 276.729164,15.1302033 277.3125,16.140625 C277.895836,17.1510467 278.880201,18.0781208 280.265625,18.921875 C281.651049,19.7656292 283.770819,20.6979116 286.625,21.71875 C291.416691,23.4270919 294.713533,25.2604069 296.515625,27.21875 C298.317717,29.1770931 299.21875,31.7187344 299.21875,34.84375 L299.21875,34.84375 Z M329.03125,47 L303.5625,47 L303.5625,1.3125 L329.03125,1.3125 L329.03125,6.03125 L308.875,6.03125 L308.875,20.75 L327.8125,20.75 L327.8125,25.4375 L308.875,25.4375 L308.875,42.25 L329.03125,42.25 L329.03125,47 Z M368.875,47 L363.1875,32.46875 L344.875,32.46875 L339.25,47 L333.875,47 L351.9375,1.125 L356.40625,1.125 L374.375,47 L368.875,47 Z M361.53125,27.6875 L356.21875,13.53125 C355.531247,11.7395744 354.82292,9.54167969 354.09375,6.9375 C353.635414,8.93751 352.979171,11.1354047 352.125,13.53125 L346.75,27.6875 L361.53125,27.6875 Z M415.34375,47 L409.28125,47 L384.3125,8.65625 L384.0625,8.65625 C384.395835,13.1562725 384.5625,17.2812313 384.5625,21.03125 L384.5625,47 L379.65625,47 L379.65625,1.3125 L385.65625,1.3125 L410.5625,39.5 L410.8125,39.5 C410.770833,38.9374972 410.677084,37.1302236 410.53125,34.078125 C410.385416,31.0260264 410.333333,28.8437566 410.375,27.53125 L410.375,1.3125 L415.34375,1.3125 L415.34375,47 Z M474.1875,47 L468.875,47 L468.875,25.5 L444.8125,25.5 L444.8125,47 L439.5,47 L439.5,1.3125 L444.8125,1.3125 L444.8125,20.75 L468.875,20.75 L468.875,1.3125 L474.1875,1.3125 L474.1875,47 Z M514.46875,47 L508.78125,32.46875 L490.46875,32.46875 L484.84375,47 L479.46875,47 L497.53125,1.125 L502,1.125 L519.96875,47 L514.46875,47 Z M507.125,27.6875 L501.8125,13.53125 C501.124997,11.7395744 500.41667,9.54167969 499.6875,6.9375 C499.229164,8.93751 498.572921,11.1354047 497.71875,13.53125 L492.34375,27.6875 L507.125,27.6875 Z M531.5625,28 L531.5625,47 L526.25,47 L526.25,1.3125 L538.78125,1.3125 C544.385445,1.3125 548.526028,2.38540594 551.203125,4.53125 C553.880222,6.67709406 555.21875,9.90622844 555.21875,14.21875 C555.21875,20.2604469 552.156281,24.3437394 546.03125,26.46875 L558.4375,47 L552.15625,47 L541.09375,28 L531.5625,28 Z M531.5625,23.4375 L538.84375,23.4375 C542.593769,23.4375 545.343741,22.6927158 547.09375,21.203125 C548.843759,19.7135342 549.71875,17.4791816 549.71875,14.5 C549.71875,11.4791516 548.828134,9.30209 547.046875,7.96875 C545.265616,6.63541 542.40627,5.96875 538.46875,5.96875 L531.5625,5.96875 L531.5625,23.4375 Z M571.125,28 L571.125,47 L565.8125,47 L565.8125,1.3125 L578.34375,1.3125 C583.947945,1.3125 588.088528,2.38540594 590.765625,4.53125 C593.442722,6.67709406 594.78125,9.90622844 594.78125,14.21875 C594.78125,20.2604469 591.718781,24.3437394 585.59375,26.46875 L598,47 L591.71875,47 L580.65625,28 L571.125,28 Z M571.125,23.4375 L578.40625,23.4375 C582.156269,23.4375 584.906241,22.6927158 586.65625,21.203125 C588.406259,19.7135342 589.28125,17.4791816 589.28125,14.5 C589.28125,11.4791516 588.390634,9.30209 586.609375,7.96875 C584.828116,6.63541 581.96877,5.96875 578.03125,5.96875 L571.125,5.96875 L571.125,23.4375 Z M604.375,47 L604.375,1.3125 L609.6875,1.3125 L609.6875,47 L604.375,47 Z M647,34.84375 C647,38.8646034 645.541681,41.9999887 642.625,44.25 C639.708319,46.5000113 635.750025,47.625 630.75,47.625 C625.333306,47.625 621.166681,46.9270903 618.25,45.53125 L618.25,40.40625 C620.125009,41.1979206 622.166656,41.8229144 624.375,42.28125 C626.583344,42.7395856 628.770823,42.96875 630.9375,42.96875 C634.479184,42.96875 637.145824,42.2968817 638.9375,40.953125 C640.729176,39.6093683 641.625,37.7395953 641.625,35.34375 C641.625,33.7604088 641.307295,32.4635467 640.671875,31.453125 C640.036455,30.4427033 638.973966,29.5104209 637.484375,28.65625 C635.994784,27.8020791 633.729182,26.8333387 630.6875,25.75 C626.437479,24.2291591 623.401051,22.4270937 621.578125,20.34375 C619.755199,18.2604063 618.84375,15.5416834 618.84375,12.1875 C618.84375,8.66664906 620.166653,5.86459375 622.8125,3.78125 C625.458347,1.69790625 628.958312,0.65625 633.3125,0.65625 C637.854189,0.65625 642.031231,1.489575 645.84375,3.15625 L644.1875,7.78125 C640.416648,6.19790875 636.750018,5.40625 633.1875,5.40625 C630.374986,5.40625 628.177091,6.01041063 626.59375,7.21875 C625.010409,8.42708937 624.21875,10.1041559 624.21875,12.25 C624.21875,13.8333412 624.510414,15.1302033 625.09375,16.140625 C625.677086,17.1510467 626.661451,18.0781208 628.046875,18.921875 C629.432299,19.7656292 631.552069,20.6979116 634.40625,21.71875 C639.197941,23.4270919 642.494783,25.2604069 644.296875,27.21875 C646.098967,29.1770931 647,31.7187344 647,34.84375 L647,34.84375 Z" id="MICHAEL-SEAN-HARRIS" fill="#4A4A4A" sketch:type="MSShapeGroup"></path>
    </g>
</svg>