<?xml version="1.0" encoding="UTF-8" standalone="no"?>
<svg width="100px" height="100px" viewBox="0 0 100 100" version="1.1" xmlns="http://www.w3.org/2000/svg" xmlns:xlink="http://www.w3.org/1999/xlink" xmlns:sketch="http://www.bohemiancoding.com/sketch/ns">
    <!-- Generator: Sketch 3.2.2 (9983) - http://www.bohemiancoding.com/sketch -->
    <title>FBicon</title>
    <desc>Created with Sketch.</desc>
    <defs></defs>
    <g id="Page-1" stroke="none" stroke-width="1" fill="none" fill-rule="evenodd" sketch:type="MSPage">
        <g id="facebook-square" sketch:type="MSLayerGroup" fill="#ECEFF1">
            <path d="M83.2067139,0.880736005 L17.2386907,0.880736005 C8.16722924,0.880736005 0.744665436,8.2609738 0.744665436,17.2817106 L0.744665436,82.8705495 C0.744665436,91.8963063 8.16722924,99.2705202 17.237681,99.2705202 L83.2057042,99.2705202 C92.2791851,99.2715242 99.6987197,91.8963063 99.6987197,82.8705495 L99.6987197,17.2827146 C99.6987197,8.26298175 92.2791851,0.881739982 83.2067139,0.880736005 Z M39.727347,36.0007444 C39.2457143,36.0007444 38.8579592,36.4427488 38.8481633,37.0066534 L38.3844898,57.416089 L38.8489796,66.9354674 C38.8595918,67.4937886 39.2465306,67.9376541 39.7281633,67.9376541 C40.2065306,67.9376541 40.5934694,67.4947192 40.6065306,66.9298842 L40.6065306,66.938259 L41.127347,57.4142279 L40.6057143,37.0066534 C40.592653,36.4418182 40.2057143,36.0007444 39.727347,36.0007444 Z M43.0759184,36.6670078 C42.5559184,36.6670078 42.1387755,37.1443726 42.1281633,37.7538734 L41.7053062,57.4170195 L42.1281633,66.8787047 C42.1387755,67.4798306 42.5551021,67.9571954 43.0759184,67.9571954 C43.5959184,67.9571954 44.0097959,67.4816917 44.0228571,66.872191 L44.0228571,66.8796352 L44.4979592,57.41795 L44.0236734,37.7520123 C44.0097959,37.1434421 43.5959184,36.6670078 43.0759184,36.6670078 Z M36.4048979,35.5410599 C35.9632653,35.5410599 35.6065306,35.9477039 35.5951021,36.4697343 L35.0906122,57.4123668 L35.5959184,67.0257293 C35.607347,67.5421766 35.9640816,67.9488206 36.4048979,67.9488206 C36.8457143,67.9488206 37.1991837,67.5421766 37.2146938,67.0238682 L37.2146938,67.0220072 L37.7828571,57.4142279 L37.2146938,36.4697343 C37.2008163,35.949565 36.8440816,35.5410599 36.4048979,35.5410599 Z M33.1077551,36.3050295 C32.7044898,36.3050295 32.3779592,36.6772438 32.3648979,37.1527474 C32.3648979,37.1536779 31.8195918,57.4114363 31.8195918,57.4114363 L32.3648979,67.0834225 C32.3779592,67.5561346 32.7028571,67.9274182 33.1069388,67.9274182 C33.5069388,67.9274182 33.8334694,67.5561346 33.8489796,67.0806309 L34.4628571,57.4114363 L33.8497959,37.1508863 C33.8334694,36.6763132 33.5077551,36.3050295 33.1077551,36.3050295 Z M46.4514286,32.8536733 C45.8987755,32.8536733 45.4432653,33.3757037 45.4359184,34.0187038 L45.0538775,57.4086446 C45.0538775,57.4244638 45.4359184,66.8154282 45.4359184,66.8154282 C45.4440816,67.4519146 45.9012245,67.973945 46.4514286,67.973945 C47.0016326,67.973945 47.4563266,67.4509841 47.4653062,66.8089146 L47.8938775,57.41795 L47.4653062,34.0177732 C47.4571429,33.3775648 47.0016326,32.8536733 46.4514286,32.8536733 Z M80.1616326,45.3405294 C78.8130612,45.3405294 77.5257143,45.6550505 76.3551021,46.2198855 C75.5714286,36.0091193 68.1338775,28 59.0636734,28 C56.8440816,28 54.6808163,28.5034197 52.7697959,29.3539292 C52.0269388,29.6851998 51.8302041,30.0267064 51.8220408,30.6855255 L51.8220408,66.6423486 C51.8310204,67.3346671 52.2971429,67.9125297 52.8857143,67.9804587 C52.9102041,67.9832504 79.9844898,68 80.16,68 C85.5942857,68 90,62.9285814 90,56.6697994 C90,50.4138091 85.5959184,45.3405294 80.1616326,45.3405294 Z M49.8097959,30.6557484 C49.2187755,30.6557484 48.7330612,31.2140697 48.7248979,31.9008049 L48.2808163,57.4216722 L48.7257143,66.6842228 C48.7330612,67.3607221 49.2187755,67.9181129 49.8097959,67.9181129 C50.4,67.9181129 50.8840816,67.3607221 50.8922449,66.6739869 L50.8922449,66.6851533 L51.3755102,57.4216722 L50.8922449,31.8989438 C50.8840816,31.2150002 50.4,30.6557484 49.8097959,30.6557484 Z M10.9061224,51.9240683 C10.7387755,51.9240683 10.6065306,52.0720234 10.5844898,52.2851161 L10,57.4002698 L10.5853061,62.4279533 C10.6073469,62.6410459 10.7387755,62.789001 10.9069388,62.789001 C11.0693878,62.789001 11.2,62.6419765 11.2269388,62.4298143 L11.92,57.4002698 L11.2269388,52.283255 C11.2008163,52.0720234 11.0677551,51.9240683 10.9061224,51.9240683 Z M13.8636735,48.7574559 C13.6938776,48.7574559 13.5534694,48.9137859 13.5297959,49.1287396 C13.5297959,49.1315312 12.7436735,57.4002698 12.7436735,57.4002698 L13.5297959,65.4875541 C13.5526531,65.7043689 13.6930612,65.8616294 13.8636735,65.8616294 C14.0310204,65.8616294 14.1681633,65.7090215 14.1959184,65.4903457 L15.0906122,57.4002698 L14.1967347,49.1287396 C14.1689796,48.9091332 14.0318367,48.7574559 13.8636735,48.7574559 Z M17.0065306,47.136463 C16.7959184,47.136463 16.6277551,47.3262923 16.6057143,47.5877728 C16.6057143,47.5887033 15.8587755,57.402131 15.8587755,57.402131 L16.6057143,66.8573024 C16.6269388,67.1197134 16.795102,67.3095426 17.0065306,67.3095426 C17.2146939,67.3095426 17.3836735,67.1206439 17.4073469,66.8591634 L18.2555102,57.402131 L17.4081633,47.5877728 C17.3828571,47.3244312 17.2146939,47.136463 17.0065306,47.136463 Z M26.5885714,41.4983483 C26.2661225,41.4983483 25.9991837,41.8026334 25.9844898,42.1897362 L25.3583674,57.4077142 L25.9844898,67.2425441 C26.0008163,67.6268553 26.2661225,67.9302098 26.5885714,67.9302098 C26.9102041,67.9302098 27.1763266,67.6259247 27.1951021,67.240683 L27.1951021,67.2434746 L27.9036734,57.4077142 L27.1942857,42.1897362 C27.1763266,41.8026334 26.9093878,41.4983483 26.5885714,41.4983483 Z M20.1755102,46.7884427 C19.927347,46.7884427 19.7248979,47.0173545 19.7044898,47.320709 L18.9991837,57.4049226 L19.7044898,67.160657 C19.7240816,67.4621505 19.9265306,67.6901317 20.1755102,67.6901317 C20.4195918,67.6901317 20.6228571,67.4621505 20.6448979,67.160657 L21.4465306,57.4049226 L20.6448979,47.318848 C20.6220408,47.0164239 20.4204082,46.7884427 20.1755102,46.7884427 Z M29.8359184,37.9427721 C29.4734694,37.9427721 29.1771429,38.2805565 29.1608163,38.7113944 C29.1608163,38.712325 28.5763266,57.4095752 28.5763266,57.4095752 L29.162449,67.1839203 C29.1779592,67.6110362 29.4734694,67.9488206 29.8359184,67.9488206 C30.1951021,67.9488206 30.4922449,67.6110362 30.5102041,67.1792677 L31.1706122,57.4095752 L30.5093878,38.7113944 C30.4906122,38.2786954 30.1959184,37.9427721 29.8359184,37.9427721 Z M23.3697959,47.4407482 C23.0808163,47.4407482 22.8497959,47.7022286 22.8318367,48.0502489 L22.1665306,57.403992 L22.8318367,67.2397525 C22.8506122,67.5859117 23.0808163,67.8483227 23.3697959,67.8483227 C23.6546938,67.8483227 23.8848979,67.5859117 23.9069388,67.240683 L24.6620408,57.403992 L23.9069388,48.0465268 C23.8857143,47.7003676 23.6555102,47.4407482 23.3697959,47.4407482 Z" id="Shape-path" sketch:type="MSShapeGroup"></path>
        </g>
    </g>
</svg>