<?xml version="1.0" encoding="UTF-8" standalone="no"?>
<svg width="100px" height="100px" viewBox="0 0 100 100" version="1.1" xmlns="http://www.w3.org/2000/svg" xmlns:xlink="http://www.w3.org/1999/xlink" xmlns:sketch="http://www.bohemiancoding.com/sketch/ns">
    <!-- Generator: Sketch 3.2.2 (9983) - http://www.bohemiancoding.com/sketch -->
    <title>FBicon</title>
    <desc>Created with Sketch.</desc>
    <defs></defs>
    <g id="Page-1" stroke="none" stroke-width="1" fill="none" fill-rule="evenodd" sketch:type="MSPage">
        <g id="facebook-square" sketch:type="MSLayerGroup" fill="#ECEFF1">
            <path d="M83.2067139,0.880736005 L17.2386907,0.880736005 C8.16722924,0.880736005 0.744665436,8.2609738 0.744665436,17.2817106 L0.744665436,82.8705495 C0.744665436,91.8963063 8.16722924,99.2705202 17.237681,99.2705202 L83.2057042,99.2705202 C92.2791851,99.2715242 99.6987197,91.8963063 99.6987197,82.8705495 L99.6987197,17.2827146 C99.6987197,8.26298175 92.2791851,0.881739982 83.2067139,0.880736005 L83.2067139,0.880736005 L83.2067139,0.880736005 Z" id="Shape" sketch:type="MSShapeGroup"></path>
        </g>
        <g id="SCIcon" sketch:type="MSLayerGroup" transform="translate(10.000000, 28.000000)" fill="#FFFFFF">
            <g id="Page-1" sketch:type="MSShapeGroup">
                <g id="soundcloud">
                    <path d="M13.3697959,19.4407482 C13.0808163,19.4407482 12.8497959,19.7022286 12.8318367,20.0502489 L12.1665306,29.403992 L12.8318367,39.2397525 C12.8506122,39.5859117 13.0808163,39.8483227 13.3697959,39.8483227 C13.6546938,39.8483227 13.8848979,39.5859117 13.9069388,39.240683 L14.6620408,29.403992 L13.9069388,20.0465268 C13.8857143,19.7003676 13.6555102,19.4407482 13.3697959,19.4407482 L13.3697959,19.4407482 L13.3697959,19.4407482 Z M19.8359184,9.94277208 C19.4734694,9.94277208 19.1771429,10.2805565 19.1608163,10.7113944 C19.1608163,10.712325 18.5763266,29.4095752 18.5763266,29.4095752 L19.162449,39.1839203 C19.1779592,39.6110362 19.4734694,39.9488206 19.8359184,39.9488206 C20.1951021,39.9488206 20.4922449,39.6110362 20.5102041,39.1792677 L21.1706122,29.4095752 L20.5093878,10.7113944 C20.4906122,10.2786954 20.1959184,9.94277208 19.8359184,9.94277208 L19.8359184,9.94277208 L19.8359184,9.94277208 Z M10.1755102,18.7884427 C9.92734696,18.7884427 9.72489792,19.0173545 9.70448976,19.320709 L8.99918368,29.4049226 L9.70448976,39.160657 C9.7240816,39.4621505 9.92653064,39.6901317 10.1755102,39.6901317 C10.4195918,39.6901317 10.6228571,39.4621505 10.6448979,39.160657 L11.4465306,29.4049226 L10.6448979,19.318848 C10.6220408,19.0164239 10.4204082,18.7884427 10.1755102,18.7884427 L10.1755102,18.7884427 L10.1755102,18.7884427 Z M16.5885714,13.4983483 C16.2661225,13.4983483 15.9991837,13.8026334 15.9844898,14.1897362 L15.3583674,29.4077142 L15.9844898,39.2425441 C16.0008163,39.6268553 16.2661225,39.9302098 16.5885714,39.9302098 C16.9102041,39.9302098 17.1763266,39.6259247 17.1951021,39.240683 L17.1951021,39.2434746 L17.9036734,29.4077142 L17.1942857,14.1897362 C17.1763266,13.8026334 16.9093878,13.4983483 16.5885714,13.4983483 L16.5885714,13.4983483 L16.5885714,13.4983483 Z M7.00653062,19.136463 C6.79591837,19.136463 6.6277551,19.3262923 6.60571429,19.5877728 C6.60571429,19.5887033 5.85877551,29.402131 5.85877551,29.402131 L6.60571429,38.8573024 C6.62693878,39.1197134 6.79510204,39.3095426 7.00653062,39.3095426 C7.21469388,39.3095426 7.38367347,39.1206439 7.40734694,38.8591634 L8.25551024,29.402131 L7.40816326,19.5877728 C7.38285714,19.3244312 7.21469388,19.136463 7.00653062,19.136463 L7.00653062,19.136463 L7.00653062,19.136463 Z M3.86367347,20.7574559 C3.69387755,20.7574559 3.55346938,20.9137859 3.52979592,21.1287396 C3.52979592,21.1315312 2.74367347,29.4002698 2.74367347,29.4002698 L3.52979592,37.4875541 C3.55265306,37.7043689 3.69306122,37.8616294 3.86367347,37.8616294 C4.03102041,37.8616294 4.16816326,37.7090215 4.19591837,37.4903457 L5.09061225,29.4002698 L4.1967347,21.1287396 C4.16897959,20.9091332 4.03183674,20.7574559 3.86367347,20.7574559 L3.86367347,20.7574559 L3.86367347,20.7574559 Z M0.906122448,23.9240683 C0.73877551,23.9240683 0.606530612,24.0720234 0.584489796,24.2851161 L0,29.4002698 L0.585306122,34.4279533 C0.607346938,34.6410459 0.73877551,34.789001 0.906938776,34.789001 C1.06938775,34.789001 1.2,34.6419765 1.22693878,34.4298143 L1.92,29.4002698 L1.22693878,24.283255 C1.20081633,24.0720234 1.0677551,23.9240683 0.906122448,23.9240683 L0.906122448,23.9240683 L0.906122448,23.9240683 Z M39.8097959,2.65574838 C39.2187755,2.65574838 38.7330612,3.2140697 38.7248979,3.90080491 L38.2808163,29.4216722 L38.7257143,38.6842228 C38.7330612,39.3607221 39.2187755,39.9181129 39.8097959,39.9181129 C40.4,39.9181129 40.8840816,39.3607221 40.8922449,38.6739869 L40.8922449,38.6851533 L41.3755102,29.4216722 L40.8922449,3.89894384 C40.8840816,3.21500023 40.4,2.65574838 39.8097959,2.65574838 L39.8097959,2.65574838 L39.8097959,2.65574838 Z M70.1616326,17.3405294 C68.8130612,17.3405294 67.5257143,17.6550505 66.3551021,18.2198855 C65.5714286,8.00911928 58.1338775,0 49.0636734,0 C46.8440816,0 44.6808163,0.503419718 42.7697959,1.35392918 C42.0269388,1.68519983 41.8302041,2.02670637 41.8220408,2.68552552 L41.8220408,38.6423486 C41.8310204,39.3346671 42.2971429,39.9125297 42.8857143,39.9804587 C42.9102041,39.9832504 69.9844898,40 70.16,40 C75.5942857,40 80,34.9285814 80,28.6697994 C80,22.4138091 75.5959184,17.3405294 70.1616326,17.3405294 L70.1616326,17.3405294 L70.1616326,17.3405294 Z M36.4514286,4.85367329 C35.8987755,4.85367329 35.4432653,5.37570372 35.4359184,6.01870377 L35.0538775,29.4086446 C35.0538775,29.4244638 35.4359184,38.8154282 35.4359184,38.8154282 C35.4440816,39.4519146 35.9012245,39.973945 36.4514286,39.973945 C37.0016326,39.973945 37.4563266,39.4509841 37.4653062,38.8089146 L37.8938775,29.41795 L37.4653062,6.01777323 C37.4571429,5.37756479 37.0016326,4.85367329 36.4514286,4.85367329 L36.4514286,4.85367329 L36.4514286,4.85367329 Z M23.1077551,8.30502952 C22.7044898,8.30502952 22.3779592,8.67724376 22.3648979,9.15274744 C22.3648979,9.15367792 21.8195918,29.4114363 21.8195918,29.4114363 L22.3648979,39.0834225 C22.3779592,39.5561346 22.7028571,39.9274182 23.1069388,39.9274182 C23.5069388,39.9274182 23.8334694,39.5561346 23.8489796,39.0806309 L24.4628571,29.4114363 L23.8497959,9.15088632 C23.8334694,8.6763132 23.5077551,8.30502952 23.1077551,8.30502952 L23.1077551,8.30502952 L23.1077551,8.30502952 Z M26.4048979,7.54105988 C25.9632653,7.54105988 25.6065306,7.9477039 25.5951021,8.46973432 L25.0906122,29.4123668 L25.5959184,39.0257293 C25.607347,39.5421766 25.9640816,39.9488206 26.4048979,39.9488206 C26.8457143,39.9488206 27.1991837,39.5421766 27.2146938,39.0238682 L27.2146938,39.0220072 L27.7828571,29.4142279 L27.2146938,8.46973432 C27.2008163,7.94956498 26.8440816,7.54105988 26.4048979,7.54105988 L26.4048979,7.54105988 L26.4048979,7.54105988 Z M33.0759184,8.66700784 C32.5559184,8.66700784 32.1387755,9.14437256 32.1281633,9.75387336 L31.7053062,29.4170195 L32.1281633,38.8787047 C32.1387755,39.4798306 32.5551021,39.9571954 33.0759184,39.9571954 C33.5959184,39.9571954 34.0097959,39.4816917 34.0228571,38.872191 L34.0228571,38.8796352 L34.4979592,29.41795 L34.0236734,9.75201232 C34.0097959,9.14344208 33.5959184,8.66700784 33.0759184,8.66700784 L33.0759184,8.66700784 L33.0759184,8.66700784 Z M29.727347,8.0007444 C29.2457143,8.0007444 28.8579592,8.4427488 28.8481633,9.00665336 L28.3844898,29.416089 L28.8489796,38.9354674 C28.8595918,39.4937886 29.2465306,39.9376541 29.7281633,39.9376541 C30.2065306,39.9376541 30.5934694,39.4947192 30.6065306,38.9298842 L30.6065306,38.938259 L31.127347,29.4142279 L30.6057143,9.00665336 C30.592653,8.44181824 30.2057143,8.0007444 29.727347,8.0007444 L29.727347,8.0007444 L29.727347,8.0007444 Z" id="Shape"></path>
                </g>
            </g>
        </g>
    </g>
</svg>