<?xml version="1.0" encoding="UTF-8" standalone="no"?>
<svg width="652px" height="48px" viewBox="0 0 652 48" version="1.1" xmlns="http://www.w3.org/2000/svg" xmlns:xlink="http://www.w3.org/1999/xlink" xmlns:sketch="http://www.bohemiancoding.com/sketch/ns">
    <!-- Generator: Sketch 3.2.2 (9983) - http://www.bohemiancoding.com/sketch -->
    <title>Untitled</title>
    <desc>Created with Sketch.</desc>
    <defs></defs>
    <g id="Page-1" stroke="none" stroke-width="1" fill="none" fill-rule="evenodd" sketch:type="MSPage">
        <path d="M20.5,47 L5,6.5 L4.75,6.5 C5.04166813,9.70834938 5.1875,13.5208113 5.1875,17.9375 L5.1875,47 L0.28125,47 L0.28125,1.3125 L8.28125,1.3125 L22.75,39 L23,39 L37.59375,1.3125 L45.53125,1.3125 L45.53125,47 L40.21875,47 L40.21875,17.5625 C40.21875,14.1874831 40.3645819,10.5208531 40.65625,6.5625 L40.40625,6.5625 L24.78125,47 L20.5,47 Z M53.0625,47 L53.0625,1.3125 L58.375,1.3125 L58.375,47 L53.0625,47 Z M87.46875,5.40625 C82.4478916,5.40625 78.4843895,7.07810828 75.578125,10.421875 C72.6718605,13.7656417 71.21875,18.3437209 71.21875,24.15625 C71.21875,30.1354466 72.6197777,34.755192 75.421875,38.015625 C78.2239723,41.276058 82.2187241,42.90625 87.40625,42.90625 C90.5937659,42.90625 94.2291462,42.3333391 98.3125,41.1875 L98.3125,45.84375 C95.1458175,47.0312559 91.2396066,47.625 86.59375,47.625 C79.8645497,47.625 74.6718933,45.5833538 71.015625,41.5 C67.3593567,37.4166462 65.53125,31.6146209 65.53125,24.09375 C65.53125,19.3853931 66.4114495,15.2604344 68.171875,11.71875 C69.9323005,8.17706563 72.4739417,5.44792625 75.796875,3.53125 C79.1198083,1.61457375 83.0312275,0.65625 87.53125,0.65625 C92.3229406,0.65625 96.5103987,1.53124125 100.09375,3.28125 L97.84375,7.84375 C94.3853994,6.21874187 90.9271006,5.40625 87.46875,5.40625 L87.46875,5.40625 Z M139.96875,47 L134.65625,47 L134.65625,25.5 L110.59375,25.5 L110.59375,47 L105.28125,47 L105.28125,1.3125 L110.59375,1.3125 L110.59375,20.75 L134.65625,20.75 L134.65625,1.3125 L139.96875,1.3125 L139.96875,47 Z M180.21875,47 L174.53125,32.46875 L156.21875,32.46875 L150.59375,47 L145.21875,47 L163.28125,1.125 L167.75,1.125 L185.71875,47 L180.21875,47 Z M172.875,27.6875 L167.5625,13.53125 C166.874997,11.7395744 166.16667,9.54167969 165.4375,6.9375 C164.979164,8.93751 164.322921,11.1354047 163.46875,13.53125 L158.09375,27.6875 L172.875,27.6875 Z M216.46875,47 L191,47 L191,1.3125 L216.46875,1.3125 L216.46875,6.03125 L196.3125,6.03125 L196.3125,20.75 L215.25,20.75 L215.25,25.4375 L196.3125,25.4375 L196.3125,42.25 L216.46875,42.25 L216.46875,47 Z M222.59375,47 L222.59375,1.3125 L227.90625,1.3125 L227.90625,42.1875 L248.0625,42.1875 L248.0625,47 L222.59375,47 Z M299.21875,34.84375 C299.21875,38.8646034 297.760431,41.9999887 294.84375,44.25 C291.927069,46.5000113 287.968775,47.625 282.96875,47.625 C277.552056,47.625 273.385431,46.9270903 270.46875,45.53125 L270.46875,40.40625 C272.343759,41.1979206 274.385406,41.8229144 276.59375,42.28125 C278.802094,42.7395856 280.989573,42.96875 283.15625,42.96875 C286.697934,42.96875 289.364574,42.2968817 291.15625,40.953125 C292.947926,39.6093683 293.84375,37.7395953 293.84375,35.34375 C293.84375,33.7604088 293.526045,32.4635467 292.890625,31.453125 C292.255205,30.4427033 291.192716,29.5104209 289.703125,28.65625 C288.213534,27.8020791 285.947932,26.8333387 282.90625,25.75 C278.656229,24.2291591 275.619801,22.4270937 273.796875,20.34375 C271.973949,18.2604063 271.0625,15.5416834 271.0625,12.1875 C271.0625,8.66664906 272.385403,5.86459375 275.03125,3.78125 C277.677097,1.69790625 281.177062,0.65625 285.53125,0.65625 C290.072939,0.65625 294.249981,1.489575 298.0625,3.15625 L296.40625,7.78125 C292.635398,6.19790875 288.968768,5.40625 285.40625,5.40625 C282.593736,5.40625 280.395841,6.01041063 278.8125,7.21875 C277.229159,8.42708937 276.4375,10.1041559 276.4375,12.25 C276.4375,13.8333412 276.729164,15.1302033 277.3125,16.140625 C277.895836,17.1510467 278.880201,18.0781208 280.265625,18.921875 C281.651049,19.7656292 283.770819,20.6979116 286.625,21.71875 C291.416691,23.4270919 294.713533,25.2604069 296.515625,27.21875 C298.317717,29.1770931 299.21875,31.7187344 299.21875,34.84375 L299.21875,34.84375 Z M329.03125,47 L303.5625,47 L303.5625,1.3125 L329.03125,1.3125 L329.03125,6.03125 L308.875,6.03125 L308.875,20.75 L327.8125,20.75 L327.8125,25.4375 L308.875,25.4375 L308.875,42.25 L329.03125,42.25 L329.03125,47 Z M368.875,47 L363.1875,32.46875 L344.875,32.46875 L339.25,47 L333.875,47 L351.9375,1.125 L356.40625,1.125 L374.375,47 L368.875,47 Z M361.53125,27.6875 L356.21875,13.53125 C355.531247,11.7395744 354.82292,9.54167969 354.09375,6.9375 C353.635414,8.93751 352.979171,11.1354047 352.125,13.53125 L346.75,27.6875 L361.53125,27.6875 Z M415.34375,47 L409.28125,47 L384.3125,8.65625 L384.0625,8.65625 C384.395835,13.1562725 384.5625,17.2812313 384.5625,21.03125 L384.5625,47 L379.65625,47 L379.65625,1.3125 L385.65625,1.3125 L410.5625,39.5 L410.8125,39.5 C410.770833,38.9374972 410.677084,37.1302236 410.53125,34.078125 C410.385416,31.0260264 410.333333,28.8437566 410.375,27.53125 L410.375,1.3125 L415.34375,1.3125 L415.34375,47 Z M479.1875,46.375 L473.875,46.375 L473.875,24.875 L449.8125,24.875 L449.8125,46.375 L444.5,46.375 L444.5,0.6875 L449.8125,0.6875 L449.8125,20.125 L473.875,20.125 L473.875,0.6875 L479.1875,0.6875 L479.1875,46.375 Z M519.46875,46.375 L513.78125,31.84375 L495.46875,31.84375 L489.84375,46.375 L484.46875,46.375 L502.53125,0.5 L507,0.5 L524.96875,46.375 L519.46875,46.375 Z M512.125,27.0625 L506.8125,12.90625 C506.124997,11.1145744 505.41667,8.91667969 504.6875,6.3125 C504.229164,8.31251 503.572921,10.5104047 502.71875,12.90625 L497.34375,27.0625 L512.125,27.0625 Z M536.5625,27.375 L536.5625,46.375 L531.25,46.375 L531.25,0.6875 L543.78125,0.6875 C549.385445,0.6875 553.526028,1.76040594 556.203125,3.90625 C558.880222,6.05209406 560.21875,9.28122844 560.21875,13.59375 C560.21875,19.6354469 557.156281,23.7187394 551.03125,25.84375 L563.4375,46.375 L557.15625,46.375 L546.09375,27.375 L536.5625,27.375 Z M536.5625,22.8125 L543.84375,22.8125 C547.593769,22.8125 550.343741,22.0677158 552.09375,20.578125 C553.843759,19.0885342 554.71875,16.8541816 554.71875,13.875 C554.71875,10.8541516 553.828134,8.67709 552.046875,7.34375 C550.265616,6.01041 547.40627,5.34375 543.46875,5.34375 L536.5625,5.34375 L536.5625,22.8125 Z M576.125,27.375 L576.125,46.375 L570.8125,46.375 L570.8125,0.6875 L583.34375,0.6875 C588.947945,0.6875 593.088528,1.76040594 595.765625,3.90625 C598.442722,6.05209406 599.78125,9.28122844 599.78125,13.59375 C599.78125,19.6354469 596.718781,23.7187394 590.59375,25.84375 L603,46.375 L596.71875,46.375 L585.65625,27.375 L576.125,27.375 Z M576.125,22.8125 L583.40625,22.8125 C587.156269,22.8125 589.906241,22.0677158 591.65625,20.578125 C593.406259,19.0885342 594.28125,16.8541816 594.28125,13.875 C594.28125,10.8541516 593.390634,8.67709 591.609375,7.34375 C589.828116,6.01041 586.96877,5.34375 583.03125,5.34375 L576.125,5.34375 L576.125,22.8125 Z M609.375,46.375 L609.375,0.6875 L614.6875,0.6875 L614.6875,46.375 L609.375,46.375 Z M652,34.21875 C652,38.2396034 650.541681,41.3749887 647.625,43.625 C644.708319,45.8750113 640.750025,47 635.75,47 C630.333306,47 626.166681,46.3020903 623.25,44.90625 L623.25,39.78125 C625.125009,40.5729206 627.166656,41.1979144 629.375,41.65625 C631.583344,42.1145856 633.770823,42.34375 635.9375,42.34375 C639.479184,42.34375 642.145824,41.6718817 643.9375,40.328125 C645.729176,38.9843683 646.625,37.1145953 646.625,34.71875 C646.625,33.1354088 646.307295,31.8385467 645.671875,30.828125 C645.036455,29.8177033 643.973966,28.8854209 642.484375,28.03125 C640.994784,27.1770791 638.729182,26.2083387 635.6875,25.125 C631.437479,23.6041591 628.401051,21.8020937 626.578125,19.71875 C624.755199,17.6354063 623.84375,14.9166834 623.84375,11.5625 C623.84375,8.04164906 625.166653,5.23959375 627.8125,3.15625 C630.458347,1.07290625 633.958312,0.03125 638.3125,0.03125 C642.854189,0.03125 647.031231,0.864575 650.84375,2.53125 L649.1875,7.15625 C645.416648,5.57290875 641.750018,4.78125 638.1875,4.78125 C635.374986,4.78125 633.177091,5.38541063 631.59375,6.59375 C630.010409,7.80208937 629.21875,9.47915594 629.21875,11.625 C629.21875,13.2083412 629.510414,14.5052033 630.09375,15.515625 C630.677086,16.5260467 631.661451,17.4531208 633.046875,18.296875 C634.432299,19.1406292 636.552069,20.0729116 639.40625,21.09375 C644.197941,22.8020919 647.494783,24.6354069 649.296875,26.59375 C651.098967,28.5520931 652,31.0937344 652,34.21875 L652,34.21875 Z" id="MICHAEL-SEAN-HARRIS" fill="#000000" sketch:type="MSShapeGroup"></path>
    </g>
</svg>