<?xml version="1.0" encoding="UTF-8" standalone="no"?>
<svg width="100px" height="100px" viewBox="0 0 100 100" version="1.1" xmlns="http://www.w3.org/2000/svg" xmlns:xlink="http://www.w3.org/1999/xlink" xmlns:sketch="http://www.bohemiancoding.com/sketch/ns">
    <!-- Generator: Sketch 3.2.2 (9983) - http://www.bohemiancoding.com/sketch -->
    <title>LIicon</title>
    <desc>Created with Sketch.</desc>
    <defs></defs>
    <g id="Page-1" stroke="none" stroke-width="1" fill="none" fill-rule="evenodd" sketch:type="MSPage">
        <g id="linkedin" sketch:type="MSLayerGroup" fill="#ECEFF1">
            <path d="M83.2030612,0 L16.7969388,0 C7.55918367,0 0,7.55918367 0,16.7969388 L0,83.2030612 C0,92.4408163 7.55918367,100 16.7969388,100 L83.2030612,100 C92.4408163,100 100,92.4408163 100,83.2030612 L100,16.7969388 C100,7.55918367 92.4408163,0 83.2030612,0 L83.2030612,0 Z M37.5,81.25 L25,81.25 L25,37.5 L37.5,37.5 L37.5,81.25 L37.5,81.25 Z M31.25,31.25 C27.7979592,31.25 25,28.4520408 25,25 C25,21.5479592 27.7979592,18.75 31.25,18.75 C34.7020408,18.75 37.5,21.5479592 37.5,25 C37.5,28.4520408 34.7020408,31.25 31.25,31.25 L31.25,31.25 Z M81.25,81.25 L68.75,81.25 L68.75,56.25 C68.75,52.7979592 65.9520408,50 62.5,50 C59.0479592,50 56.25,52.7979592 56.25,56.25 L56.25,81.25 L43.75,81.25 L43.75,37.5 L56.25,37.5 L56.25,45.2612245 C58.827551,41.7204082 62.7693878,37.5 67.1877551,37.5 C74.955102,37.5 81.2510204,44.4959184 81.2510204,53.1244898 L81.25,81.25 L81.25,81.25 Z" id="Shape" sketch:type="MSShapeGroup"></path>
        </g>
    </g>
</svg>